<svg width="572" height="572" viewBox="0 0 572 572" fill="none" xmlns="http://www.w3.org/2000/svg">
<path fill-rule="evenodd" clip-rule="evenodd" d="M293.62 22.1256L15.0133 300.732L0 285.719L278.607 7.1123L293.62 22.1256Z" fill="black"/>
<path fill-rule="evenodd" clip-rule="evenodd" d="M286.268 0L571.999 285.731L556.999 300.732L271.268 15.0011L286.268 0Z" fill="black"/>
<path fill-rule="evenodd" clip-rule="evenodd" d="M22.1214 278.38L300.731 556.989L285.721 572L7.11133 293.391L22.1214 278.38Z" fill="black"/>
<path fill-rule="evenodd" clip-rule="evenodd" d="M278.381 549.867L549.868 278.38L564.889 293.401L293.401 564.888L278.381 549.867Z" fill="black"/>
<path d="M280.826 380.405C280.826 381.084 280.685 381.665 280.403 382.15C280.215 382.634 279.792 383.07 279.134 383.458C278.476 383.749 277.536 383.991 276.314 384.185C275.186 384.379 273.729 384.475 271.944 384.475C270.346 384.475 268.983 384.379 267.855 384.185C266.821 384.088 265.928 383.846 265.176 383.458C264.424 382.973 263.813 382.392 263.343 381.714C262.873 380.938 262.45 379.969 262.074 378.806L245.014 333.164C243.04 328.028 240.925 323.182 238.669 318.628C236.413 314.073 233.687 310.148 230.491 306.854C227.295 303.462 223.442 300.797 218.93 298.859C214.418 296.921 209.013 295.952 202.716 295.952H183.822V380.696C183.822 381.278 183.681 381.811 183.399 382.295C183.117 382.78 182.647 383.167 181.989 383.458C181.331 383.749 180.438 383.991 179.311 384.185C178.277 384.379 176.914 384.475 175.222 384.475C173.624 384.475 172.261 384.379 171.133 384.185C170.005 383.991 169.112 383.749 168.454 383.458C167.796 383.167 167.326 382.78 167.044 382.295C166.762 381.811 166.621 381.278 166.621 380.696V204.666C166.621 201.177 167.514 198.803 169.3 197.543C171.086 196.187 172.825 195.508 174.517 195.508H208.778C213.29 195.508 217.003 195.654 219.917 195.944C222.925 196.138 225.651 196.429 228.094 196.816C235.05 198.076 241.113 200.111 246.283 202.922C251.452 205.732 255.729 209.22 259.113 213.387C262.497 217.457 264.988 222.109 266.586 227.342C268.278 232.478 269.124 238.05 269.124 244.058C269.124 250.26 268.278 255.832 266.586 260.775C264.894 265.62 262.497 269.932 259.395 273.712C256.293 277.394 252.58 280.592 248.257 283.305C243.933 286.019 239.186 288.296 234.016 290.137C237.118 291.591 239.891 293.384 242.335 295.515C244.873 297.647 247.176 300.215 249.244 303.22C251.405 306.224 253.426 309.712 255.306 313.685C257.186 317.562 259.066 321.922 260.946 326.768L278.006 370.666C279.228 374.058 279.98 376.384 280.262 377.644C280.638 378.903 280.826 379.824 280.826 380.405ZM250.512 245.948C250.512 237.905 248.774 231.121 245.296 225.598C241.818 219.977 235.99 215.955 227.812 213.533C225.087 212.758 222.126 212.225 218.93 211.934C215.734 211.546 211.551 211.352 206.381 211.352H183.822V280.398H210.047C217.097 280.398 223.16 279.526 228.235 277.782C233.311 275.94 237.494 273.469 240.784 270.368C244.168 267.267 246.612 263.633 248.116 259.466C249.714 255.299 250.512 250.793 250.512 245.948Z" fill="black"/>
<path d="M408.426 332.728C408.426 341.061 406.969 348.523 404.055 355.113C401.141 361.702 397.052 367.323 391.788 371.975C386.525 376.529 380.274 380.018 373.036 382.44C365.799 384.863 357.903 386.074 349.349 386.074C343.521 386.074 338.023 385.493 332.853 384.33C327.683 383.264 323.077 381.956 319.036 380.405C314.994 378.855 311.563 377.304 308.743 375.754C306.017 374.106 304.137 372.75 303.103 371.684C302.069 370.521 301.317 369.213 300.847 367.759C300.377 366.209 300.142 364.319 300.142 362.09C300.142 360.443 300.236 359.086 300.424 358.02C300.612 356.954 300.847 356.082 301.129 355.404C301.505 354.725 301.928 354.289 302.398 354.095C302.962 353.805 303.526 353.659 304.09 353.659C305.406 353.659 307.239 354.531 309.589 356.276C312.033 357.923 315.135 359.764 318.895 361.799C322.748 363.738 327.307 365.579 332.571 367.323C337.929 368.97 344.132 369.794 351.182 369.794C356.916 369.794 362.18 369.019 366.973 367.468C371.767 365.821 375.903 363.495 379.381 360.491C382.859 357.487 385.538 353.805 387.418 349.444C389.392 344.986 390.378 339.947 390.378 334.326C390.378 328.512 389.157 323.521 386.713 319.354C384.269 315.187 381.026 311.553 376.984 308.452C373.036 305.255 368.524 302.396 363.449 299.876C358.373 297.26 353.156 294.692 347.798 292.172C342.535 289.556 337.365 286.745 332.289 283.741C327.213 280.737 322.654 277.249 318.613 273.276C314.665 269.205 311.469 264.457 309.025 259.03C306.581 253.604 305.359 247.159 305.359 239.697C305.359 232.43 306.628 225.937 309.166 220.219C311.704 214.405 315.276 209.511 319.882 205.538C324.487 201.468 329.986 198.367 336.378 196.235C342.864 194.103 349.96 193.037 357.668 193.037C361.522 193.037 365.423 193.425 369.37 194.2C373.318 194.975 377.031 195.993 380.509 197.253C384.081 198.415 387.23 199.772 389.955 201.323C392.775 202.776 394.608 203.988 395.454 204.957C396.394 205.829 396.958 206.507 397.146 206.992C397.428 207.379 397.663 207.912 397.851 208.591C398.039 209.269 398.18 210.093 398.274 211.062C398.368 211.934 398.415 213.048 398.415 214.405C398.415 215.665 398.321 216.828 398.133 217.894C398.039 218.863 397.851 219.735 397.569 220.51C397.287 221.188 396.911 221.721 396.441 222.109C396.065 222.497 395.595 222.69 395.031 222.69C393.997 222.69 392.399 222.012 390.237 220.655C388.17 219.202 385.538 217.603 382.342 215.859C379.146 214.114 375.339 212.564 370.921 211.207C366.503 209.753 361.475 209.027 355.835 209.027C350.289 209.027 345.448 209.802 341.313 211.352C337.177 212.903 333.746 215.035 331.02 217.748C328.294 220.365 326.226 223.466 324.816 227.051C323.5 230.637 322.842 234.416 322.842 238.389C322.842 244.204 324.064 249.194 326.508 253.361C328.952 257.528 332.195 261.211 336.237 264.409C340.279 267.606 344.837 270.514 349.913 273.13C355.083 275.65 360.3 278.218 365.564 280.834C370.921 283.354 376.138 286.116 381.214 289.12C386.384 292.027 390.989 295.515 395.031 299.586C399.073 303.559 402.316 308.259 404.76 313.685C407.204 319.015 408.426 325.363 408.426 332.728Z" fill="black"/>
<path fill-rule="evenodd" clip-rule="evenodd" d="M166.621 446.017L166.621 289.556L183.893 289.556L183.893 446.017L166.621 446.017Z" fill="black"/>
<path fill-rule="evenodd" clip-rule="evenodd" d="M380.994 210.309V122.935H398.266V210.309H380.994Z" fill="black"/>
</svg>
